# xmcd
#
# Track frame offsets:
#	150
#	27051
#	54714
#	75600
#	109558
#	149274
#	166759
#	191214
#	213408
#	249091
#	279099
#
# Disc length: 4176 seconds
#
# Revision: 1
# Processed by: cddbd v1.5PL3 Copyright (c) Steve Scherf et al.
# Submitted via: CDmax 2.0
#
DISCID=8a104e0b
DTITLE=Hot Tuna - Jorma Kaukonen and Jack Casady - Jack and Jorma, The Original A
DTITLE=coustic Hot Tuna - Live in Pitman, NJ - 12.08.01 - d2
DYEAR=2001
DGENRE=Blues
TTITLE0=Hesitation Blues
TTITLE1=Uncle Sam Blues
TTITLE2=Trouble In Mind
TTITLE3=I See The Light
TTITLE4=99 Year Blues
TTITLE5=I Am The Light Of This World
TTITLE6=Genesis
TTITLE7=Been So Long
TTITLE8=Another Man Done Gone-> Parchman Farm
TTITLE9=San Francisco Bay Blues
TTITLE10=That'll Never Happen No More
EXTD=Billed as \nHot Tuna\nBroadway Theatre, \nPitman, NJ \n12-08-01\n"Jac
EXTD=k and Jorma, The Original Acoustic Hot Tuna"\n\nSet 1:\n01. Intro\n02. Foo
EXTD=l's Blues\n03. How Long Blues \n04. Waiting For A Train \n05. Death Don'
EXTD=t Have No Mercy \n06. Do Not Go Gentle \n07. Serpent Of Dreams \n08. Liv
EXTD=ing In The Moment \n09. Embryonic Journey \n10. Good Shepherd\n11. Sea C
EXTD=hild\n12. Nobody Knows You When You're Down And Out\n13. I Know You Ride
EXTD=r\n\nSet 2:\nHesitation Blues\nUncle Sam Blues\nTrouble In Mind\nI See T
EXTD=he Light\n99 Year Blues \nI Am The Light Of This World \nGenesis\nBeen S
EXTD=o Long\nAnother Man Done Gone->\nParchman Farm\nSan Francisco Bay Blues\
EXTD=n\nEncore: \nThat'll Never Happen No More
EXTT0=
EXTT1=
EXTT2=
EXTT3=
EXTT4=
EXTT5=
EXTT6=
EXTT7=
EXTT8=
EXTT9=
EXTT10=
PLAYORDER=
